<?xml version="1.0" standalone="no"?>
<!DOCTYPE svg PUBLIC "-//W3C//DTD SVG 20010904//EN"
 "http://www.w3.org/TR/2001/REC-SVG-20010904/DTD/svg10.dtd">
<svg version="1.0" xmlns="http://www.w3.org/2000/svg"
 width="1024.000000pt" height="1024.000000pt" viewBox="0 0 1024.000000 1024.000000"
 preserveAspectRatio="xMidYMid meet">

<g transform="translate(0.000000,1024.000000) scale(0.100000,-0.100000)"
fill="#000000" stroke="none">
<path d="M3281 8089 c-24 -5 -47 -11 -50 -15 -3 -4 5 -4 19 0 56 14 182 18
257 7 117 -17 203 -53 353 -149 62 -40 280 -172 295 -180 7 -3 7 -2 0 5 -14
14 -374 237 -424 262 -137 71 -311 97 -450 70z"/>
<path d="M3180 8060 c-18 -12 -2 -12 25 0 13 6 15 9 5 9 -8 0 -22 -4 -30 -9z"/>
<path d="M3095 8023 c-141 -73 -270 -213 -337 -368 -15 -33 -29 -73 -32 -90
-4 -16 2 -7 12 20 72 191 199 342 365 431 34 18 58 33 52 33 -5 0 -32 -12 -60
-26z"/>
<path d="M4170 7747 c0 -3 80 -54 178 -113 97 -59 187 -114 200 -122 12 -8 22
-12 22 -9 0 3 -87 58 -192 123 -224 136 -208 126 -208 121z"/>
<path d="M2705 7490 c-4 -23 -5 -43 -2 -46 2 -3 7 14 11 37 4 23 5 44 2 46 -2
2 -7 -14 -11 -37z"/>
<path d="M4585 7493 c16 -16 984 -605 1520 -925 138 -82 273 -163 300 -180 80
-50 273 -165 515 -307 422 -249 491 -307 580 -486 49 -100 69 -181 76 -315 9
-164 -33 -337 -117 -476 -43 -72 -139 -180 -209 -237 -77 -62 -319 -209 -332
-201 -6 4 -8 3 -5 -2 6 -11 -340 -220 -360 -218 -7 1 -11 -2 -8 -5 2 -4 -42
-35 -98 -68 -56 -33 -116 -68 -134 -79 -18 -10 -87 -52 -154 -92 -67 -40 -123
-71 -126 -68 -3 2 7 12 21 22 15 9 24 19 22 22 -3 3 -22 -8 -41 -23 -22 -16
-44 -25 -56 -22 -11 3 -16 1 -13 -5 4 -5 19 -7 35 -4 34 7 37 1 8 -15 -18 -9
-27 -7 -49 10 l-29 21 5 -26 c3 -18 1 -23 -7 -18 -8 5 -9 3 -4 -6 6 -10 10
-10 20 3 6 9 16 12 24 8 8 -5 -20 -26 -79 -61 -73 -42 -94 -50 -103 -40 -9 10
-9 12 3 8 9 -3 25 1 35 8 18 13 16 14 -20 9 -24 -3 -35 -1 -26 4 9 6 10 11 2
15 -6 4 -11 3 -11 -1 0 -5 -12 -14 -27 -21 -27 -11 -27 -11 -3 -7 18 3 29 -2
38 -15 14 -23 8 -27 -43 -24 -53 3 -52 3 -35 14 25 16 -3 10 -30 -6 -14 -8
-18 -13 -10 -11 9 3 24 -1 34 -9 14 -10 24 -10 38 -3 11 6 22 9 24 6 3 -2 -28
-24 -68 -47 -40 -23 -89 -52 -108 -63 -23 -14 -31 -16 -23 -6 10 12 10 18 0
29 -10 12 -9 12 5 1 9 -7 22 -9 29 -5 8 4 4 11 -12 20 -34 19 -55 17 -56 -6
-1 -11 2 -19 7 -17 8 2 10 -3 10 -27 0 -11 -77 -62 -151 -102 -3 -2 -6 3 -6
11 0 8 4 15 9 15 4 0 10 0 13 0 15 0 76 40 106 69 26 26 28 31 9 19 -14 -8
-35 -17 -48 -21 -20 -5 -21 -3 -10 10 9 11 0 9 -30 -6 -38 -19 -42 -24 -30
-38 12 -15 11 -15 -10 -4 -20 11 -23 10 -20 -5 2 -9 -4 -19 -12 -21 -12 -4
-12 -3 -1 5 27 19 -7 20 -38 1 -18 -11 -35 -18 -37 -16 -2 1 20 17 49 34 29
16 106 64 172 105 176 110 456 275 485 287 14 5 21 10 15 11 -5 0 13 13 40 29
132 75 953 572 1050 636 97 64 168 127 243 219 37 44 110 195 127 260 12 50
13 61 1 70 -8 6 -16 18 -20 26 -3 8 -3 1 0 -16 4 -25 0 -37 -21 -58 -14 -14
-30 -26 -35 -26 -5 0 -10 -17 -12 -37 -4 -46 -28 -58 -28 -13 l0 31 -235 -3
-235 -2 0 -28 0 -28 -80 0 c-78 0 -80 1 -80 24 0 23 -4 24 -80 31 -59 5 -80
11 -80 21 0 8 -7 17 -15 20 -8 4 -15 11 -15 16 0 6 6 8 13 5 8 -3 14 1 14 9 0
13 -9 11 -35 -9 -11 -8 -11 -12 0 -20 9 -6 7 -7 -6 -3 -20 7 -60 -15 -301
-164 -77 -47 -174 -106 -215 -130 -41 -24 -124 -74 -185 -110 -60 -37 -202
-122 -315 -190 -113 -67 -232 -139 -265 -160 -33 -20 -206 -124 -385 -230
-179 -106 -341 -203 -360 -215 -19 -13 -145 -87 -280 -166 -135 -79 -272 -160
-305 -181 -113 -70 -222 -127 -258 -133 -52 -10 -130 28 -122 59 5 16 4 18 -4
6 -8 -12 -12 -9 -21 15 -7 17 -13 44 -15 60 -6 44 -15 841 -17 1565 -2 349 -4
510 -5 357 -2 -186 -7 -276 -14 -272 -6 5 -7 -15 -3 -59 6 -57 5 -66 -10 -66
-12 0 -16 10 -17 38 -1 20 -4 48 -8 62 -7 23 -8 21 -15 -17 -5 -27 -13 -43
-22 -43 -8 0 -14 -4 -14 -10 0 -5 -18 -10 -40 -10 -38 0 -40 2 -40 30 l0 30
-80 -2 c-56 -2 -80 -7 -80 -15 0 -8 -14 -13 -35 -13 -31 0 -35 3 -46 40 -11
36 -15 40 -46 40 -29 0 -33 -3 -33 -25 0 -14 -4 -25 -10 -25 -5 0 -10 14 -10
31 0 27 -3 30 -27 27 -24 -3 -28 -8 -31 -41 -2 -20 -7 -35 -13 -32 -5 4 -10
-26 -10 -72 l-2 -78 -9 80 c-6 54 -5 81 2 83 5 2 9 22 9 45 -1 40 -2 40 -9 12
-6 -25 -8 -20 -10 30 l-2 60 -10 -45 c-5 -25 -6 -67 -3 -95 4 -27 3 -46 -2
-42 -4 5 -10 88 -13 185 -3 97 -8 -340 -12 -973 -6 -1042 -5 -1203 16 -1325 8
-43 1 -30 -14 28 -6 23 -14 41 -18 38 -4 -2 -9 66 -10 152 -2 87 -6 159 -9
162 -3 3 -3 -48 -1 -112 2 -65 0 -118 -4 -118 -5 0 -8 17 -9 38 l0 37 -15 -45
c-14 -44 -13 -64 11 -198 7 -36 23 -83 49 -144 9 -21 14 -38 12 -38 -9 0 -47
92 -74 180 l-27 85 -5 2185 -5 2185 0 -2190 0 -2190 22 -76 c63 -221 213 -405
408 -499 112 -54 183 -70 312 -70 117 0 193 15 280 55 48 21 400 228 538 315
33 21 238 143 455 272 217 130 586 349 820 488 234 139 569 338 745 443 176
104 331 197 345 206 14 9 93 57 175 106 398 236 443 266 537 363 121 124 188
242 235 412 13 49 18 100 17 210 -1 124 -4 157 -26 226 -47 158 -155 308 -283
398 -35 24 -153 97 -262 162 -286 169 -1458 873 -1723 1034 -124 76 -326 199
-449 274 -230 141 -273 166 -256 149z m2870 -2435 c-9 -40 -20 -54 -28 -34 -3
8 0 22 8 30 8 8 15 19 15 25 0 6 3 11 6 11 3 0 3 -15 -1 -32z m-920 -28 c-18
-20 -62 -29 -50 -10 3 6 0 11 -7 11 -11 1 33 13 66 18 5 0 1 -8 -9 -19z m-61
-26 c4 -9 5 -18 4 -19 -2 -1 -17 -9 -34 -17 -27 -13 -34 -13 -55 -1 -13 8 -16
12 -7 9 9 -3 18 -2 20 2 4 8 50 41 59 41 4 1 10 -6 13 -15z m96 -18 c0 -18 -7
-25 -32 -30 -17 -3 -36 -2 -42 4 -5 5 -8 11 -5 12 30 19 66 38 72 38 4 0 7
-11 7 -24z m-260 -61 c0 -2 -10 -10 -22 -16 -21 -11 -22 -11 -9 4 13 16 31 23
31 12z m5 -35 c3 -6 -1 -7 -9 -4 -18 7 -21 14 -7 14 6 0 13 -4 16 -10z m-75
-50 c0 -5 -2 -10 -4 -10 -3 0 -8 5 -11 10 -3 6 -1 10 4 10 6 0 11 -4 11 -10z
m-1010 -1410 c-8 -5 -19 -10 -25 -10 -5 0 -3 5 5 10 8 5 20 10 25 10 6 0 3 -5
-5 -10z m110 -14 c-19 -13 -37 -22 -40 -19 -3 3 1 8 8 10 7 3 18 11 25 19 7 7
19 13 27 14 8 0 -1 -11 -20 -24z m-50 -25 c0 -5 -32 -27 -70 -49 -54 -31 -67
-36 -55 -19 8 11 22 22 31 23 25 4 83 47 77 58 -3 5 -1 6 5 2 7 -4 12 -11 12
-15z m-73 -17 c-3 -3 -12 -4 -19 -1 -8 3 -5 6 6 6 11 1 17 -2 13 -5z m-60 -30
c-3 -3 -12 -4 -19 -1 -8 3 -5 6 6 6 11 1 17 -2 13 -5z m-87 -14 c-8 -5 -19
-10 -25 -10 -5 0 -3 5 5 10 8 5 20 10 25 10 6 0 3 -5 -5 -10z m70 -28 c0 -5
-12 -14 -27 -21 l-28 -12 25 21 c29 22 30 23 30 12z m-156 -34 c-3 -4 -11 -5
-19 -1 -21 7 -19 12 4 10 11 0 18 -5 15 -9z m96 -2 c0 -4 -51 -36 -107 -68
-23 -12 -34 -14 -39 -6 -4 6 -3 8 3 5 6 -4 16 0 23 8 7 8 19 15 27 15 8 0 11
4 8 10 -4 6 1 7 11 3 13 -5 15 -3 9 7 -5 8 -4 11 2 7 6 -4 19 0 29 8 19 14 34
19 34 11z m-154 -95 c-3 -5 -20 -16 -38 -25 -18 -9 -44 -24 -58 -33 -21 -14
-23 -14 -10 -1 12 13 97 66 108 68 2 0 1 -4 -2 -9z m-129 -77 c-3 -3 -12 -4
-19 -1 -8 3 -5 6 6 6 11 1 17 -2 13 -5z m-57 -35 c-40 -24 -123 -68 -107 -57
58 41 113 74 117 71 3 -3 -2 -9 -10 -14z m-130 -74 c0 -2 -10 -10 -22 -16 -21
-11 -22 -11 -9 4 13 16 31 23 31 12z m-162 -98 c-32 -26 -88 -60 -88 -53 0 2
20 17 45 33 25 15 45 31 45 36 0 4 6 7 13 7 6 -1 0 -11 -15 -23z m-118 -72 c0
-2 -10 -9 -22 -15 -22 -11 -22 -10 -4 4 21 17 26 19 26 11z m-50 -30 c0 -2
-10 -9 -22 -15 -22 -11 -22 -10 -4 4 21 17 26 19 26 11z m-1396 -111 c21 -24
36 -44 33 -44 -12 0 -72 69 -90 102 -18 32 -18 32 0 9 10 -12 35 -43 57 -67z
m1346 81 c0 -2 -10 -9 -22 -15 -22 -11 -22 -10 -4 4 21 17 26 19 26 11z m-95
-55 c-3 -5 -12 -10 -18 -10 -7 0 -6 4 3 10 19 12 23 12 15 0z m-41 -25 c-4 -8
-11 -15 -16 -15 -6 0 -5 6 2 15 7 8 14 15 16 15 2 0 1 -7 -2 -15z m-39 -25
c-3 -5 -16 -15 -28 -21 -21 -10 -21 -9 2 10 25 23 36 27 26 11z m-1101 -41
c-2 -4 15 -23 37 -44 22 -20 39 -38 37 -40 -1 -2 -27 18 -56 44 -40 35 -48 47
-33 47 11 0 18 -3 15 -7z m976 -34 c0 -2 -10 -9 -22 -15 -22 -11 -22 -10 -4 4
21 17 26 19 26 11z m-859 -72 c13 -17 13 -17 -6 -3 -11 8 -22 16 -24 17 -2 2
0 3 6 3 6 0 17 -8 24 -17z m99 -53 c8 -5 11 -10 5 -10 -5 0 -17 5 -25 10 -8 5
-10 10 -5 10 6 0 17 -5 25 -10z m80 -32 c10 -6 7 -7 -10 -2 -14 3 -32 11 -40
16 -10 6 -7 7 10 2 14 -3 32 -11 40 -16z m327 -14 c-3 -3 -12 -4 -19 -1 -8 3
-5 6 6 6 11 1 17 -2 13 -5z m-110 -10 c-3 -3 -12 -4 -19 -1 -8 3 -5 6 6 6 11
1 17 -2 13 -5z"/>
<path d="M6433 4990 c-13 -5 -23 -11 -23 -14 0 -7 40 6 46 15 6 10 6 10 -23
-1z"/>
<path d="M3576 7009 l-26 -20 2 -737 3 -737 5 738 c5 717 6 739 24 753 11 8
29 11 40 8 12 -4 152 -85 311 -182 300 -181 831 -500 1063 -638 223 -132 241
-143 440 -266 106 -65 208 -128 228 -138 19 -11 92 -55 162 -99 70 -43 237
-145 372 -226 268 -162 296 -181 305 -208 4 -10 9 -16 12 -13 3 3 -2 16 -10
30 -18 26 -87 70 -592 376 -176 107 -383 233 -460 280 -77 48 -270 165 -430
260 -159 95 -436 261 -615 369 -179 107 -428 257 -554 333 -126 76 -234 138
-241 138 -7 0 -24 -9 -39 -21z"/>
<path d="M3554 5355 c0 -88 2 -123 3 -77 2 46 2 118 0 160 -1 42 -3 5 -3 -83z"/>
<path d="M7483 5205 c0 -22 2 -30 4 -17 2 12 2 30 0 40 -3 9 -5 -1 -4 -23z"/>
<path d="M6508 5204 c-8 -38 -10 -39 -538 -356 -206 -124 -481 -290 -610 -368
-264 -160 -645 -389 -675 -406 -11 -6 -72 -42 -135 -80 -63 -39 -239 -144
-390 -234 -151 -90 -326 -194 -389 -232 -63 -37 -122 -68 -132 -68 -9 0 -27 9
-40 19 l-24 19 -5 389 -6 388 -3 -330 c-2 -181 -5 -343 -6 -360 -4 -46 16
-105 42 -122 35 -23 67 -12 204 70 120 72 1456 873 1709 1025 69 42 274 165
455 275 553 334 562 340 553 385 -2 10 -6 5 -10 -14z"/>
<path d="M3554 5050 c0 -58 1 -81 3 -52 2 28 2 76 0 105 -2 28 -3 5 -3 -53z"/>
<path d="M3553 4865 c0 -38 2 -53 4 -32 2 20 2 52 0 70 -2 17 -4 1 -4 -38z"/>
<path d="M3552 4735 c0 -16 2 -22 5 -12 2 9 2 23 0 30 -3 6 -5 -1 -5 -18z"/>
<path d="M3553 4610 c0 -30 2 -43 4 -27 2 15 2 39 0 55 -2 15 -4 2 -4 -28z"/>
<path d="M6218 3978 c5 -5 16 -8 23 -6 8 3 3 7 -10 11 -17 4 -21 3 -13 -5z"/>
<path d="M6188 3963 c6 -2 10 -9 6 -14 -3 -5 -1 -9 5 -9 17 0 21 18 5 24 -9 3
-19 6 -22 5 -4 0 -1 -3 6 -6z"/>
<path d="M6153 3925 c0 -8 4 -12 9 -9 5 3 6 10 3 15 -9 13 -12 11 -12 -6z"/>
<path d="M6086 3905 c-11 -8 -17 -15 -14 -15 4 0 14 -3 24 -7 13 -5 16 -3 11
10 -3 8 -1 18 6 21 7 2 8 5 2 5 -5 0 -19 -6 -29 -14z"/>
<path d="M5825 3771 c-3 -6 5 -16 19 -22 21 -10 28 -9 43 6 17 18 17 18 -6 12
-14 -3 -30 -2 -37 4 -8 7 -14 7 -19 0z"/>
<path d="M5795 3750 c3 -5 11 -10 16 -10 6 0 7 5 4 10 -3 6 -11 10 -16 10 -6
0 -7 -4 -4 -10z"/>
<path d="M5621 3648 c-7 -11 -15 -17 -18 -14 -3 3 -15 0 -26 -6 -20 -10 -20
-11 6 -25 25 -13 31 -11 73 13 31 18 42 30 35 37 -19 19 -57 16 -70 -5z m66
-4 c-3 -3 -12 -4 -19 -1 -8 3 -5 6 6 6 11 1 17 -2 13 -5z m-47 -19 c-7 -8 -22
-15 -34 -15 -20 0 -19 1 4 14 34 19 45 19 30 1z"/>
<path d="M3890 3550 c-9 -6 -10 -10 -3 -10 6 0 15 5 18 10 8 12 4 12 -15 0z"/>
<path d="M3529 3498 c-5 -18 -6 -38 -1 -34 7 8 12 36 6 36 -2 0 -4 -1 -5 -2z"/>
<path d="M3557 3459 c7 -7 15 -10 18 -7 3 3 -2 9 -12 12 -14 6 -15 5 -6 -5z"/>
<path d="M2744 3320 c0 -69 1 -97 3 -62 2 34 2 90 0 125 -2 34 -3 6 -3 -63z"/>
<path d="M3597 3420 c4 -5 17 -10 28 -13 15 -3 13 -5 -8 -6 -16 0 -26 -5 -23
-10 5 -8 72 1 82 11 2 3 -17 9 -42 15 -25 6 -42 7 -37 3z"/>
<path d="M2721 3174 c0 -11 3 -14 6 -6 3 7 2 16 -1 19 -3 4 -6 -2 -5 -13z"/>
</g>
</svg>
